<svg xmlns="http://www.w3.org/2000/svg" viewBox="0 0 100 100">
  <circle cx="50" cy="50" r="48" fill="#a4e1bc" />

  <!-- Left Ear -->
  <path d="M39 55 C22 15, 38 10, 48 40 Z" fill="#ffffff" stroke="#ffffff" stroke-width="2" stroke-linejoin="round" />
  <!-- Right Ear -->
  <path d="M61 55 C78 15, 62 10, 52 40 Z" fill="#ffffff" stroke="#ffffff" stroke-width="2" stroke-linejoin="round" />

  <!-- Inner Left Ear -->
  <path d="M39 50 C29 25, 38 18, 44 40 Z" fill="#fcfcfc" stroke="#8ec8a3" stroke-width="2" />
  <!-- Inner Right Ear -->
  <path d="M61 50 C71 25, 62 18, 56 40 Z" fill="#fcfcfc" stroke="#8ec8a3" stroke-width="2" />

  <!-- Head -->
  <path d="M30 65 C25 45, 75 45, 70 65 C72 85, 28 85, 30 65 Z" fill="#ffffff" stroke="#ffffff" stroke-width="2" stroke-linejoin="round" />

  <!-- Eyes (Happy Arcs) -->
  <path d="M38 58 Q42 54 46 58" fill="none" stroke="#8ec8a3" stroke-width="3" stroke-linecap="round" />
  <path d="M54 58 Q58 54 62 58" fill="none" stroke="#8ec8a3" stroke-width="3" stroke-linecap="round" />

  <!-- Mouth -->
  <!-- W shape -->
  <path d="M43 65 Q46.5 70 50 66 Q53.5 70 57 65" fill="none" stroke="#8ec8a3" stroke-width="3" stroke-linecap="round" stroke-linejoin="round" />
  <!-- Nose line -->
  <line x1="50" y1="65" x2="50" y2="62" stroke="#8ec8a3" stroke-width="3" stroke-linecap="round" />
</svg>
